{
  "accessors": [
    {
      "bufferView": 0,
      "componentType": 5125,
      "count": 4164,
      "type": "SCALAR"
    },
    {
      "bufferView": 1,
      "componentType": 5126,
      "count": 859,
      "max": [
        0.808372437953949,
        -0.0774245709180832,
        1.0
      ],
      "min": [
        -0.771331489086151,
        -0.477568566799164,
        -0.604063212871552
      ],
      "type": "VEC3"
    },
    {
      "bufferView": 2,
      "componentType": 5126,
      "count": 859,
      "type": "VEC3"
    },
    {
      "bufferView": 3,
      "componentType": 5126,
      "count": 859,
      "type": "VEC2"
    },
    {
      "bufferView": 4,
      "componentType": 5125,
      "count": 16560,
      "type": "SCALAR"
    },
    {
      "bufferView": 5,
      "componentType": 5126,
      "count": 3403,
      "max": [
        0.978303968906403,
        0.572273194789886,
        0.979335248470306
      ],
      "min": [
        -0.978303968906403,
        -0.572273194789886,
        -1.0
      ],
      "type": "VEC3"
    },
    {
      "bufferView": 6,
      "componentType": 5126,
      "count": 3403,
      "type": "VEC3"
    },
    {
      "bufferView": 7,
      "componentType": 5126,
      "count": 3403,
      "type": "VEC2"
    }
  ],
  "asset": {
    "generator": "Substance Painter 2019.1.1",
    "version": "2.0"
  },
  "bufferViews": [
    {
      "buffer": 0,
      "byteLength": 16656,
      "target": 34963
    },
    {
      "buffer": 0,
      "byteLength": 10308,
      "byteOffset": 16656,
      "target": 34962
    },
    {
      "buffer": 0,
      "byteLength": 10308,
      "byteOffset": 26964,
      "target": 34962
    },
    {
      "buffer": 0,
      "byteLength": 6872,
      "byteOffset": 37272,
      "target": 34962
    },
    {
      "buffer": 0,
      "byteLength": 66240,
      "byteOffset": 44144,
      "target": 34963
    },
    {
      "buffer": 0,
      "byteLength": 40836,
      "byteOffset": 110384,
      "target": 34962
    },
    {
      "buffer": 0,
      "byteLength": 40836,
      "byteOffset": 151220,
      "target": 34962
    },
    {
      "buffer": 0,
      "byteLength": 27224,
      "byteOffset": 192056,
      "target": 34962
    }
  ],
  "buffers": [
    {
      "byteLength": 219280,
      "uri": "Untitled.bin"
    }
  ],
  "images": [
    {
      "uri": "DefaultMaterial_baseColor.png"
    },
    {
      "uri": "DefaultMaterial_occlusionRoughnessMetallic.png"
    },
    {
      "uri": "DefaultMaterial_normal.png"
    }
  ],
  "materials": [
    {
      "alphaMode": "OPAQUE",
      "name": "DefaultMaterial",
      "normalTexture": {
        "index": 2
      },
      "occlusionTexture": {
        "index": 1
      },
      "pbrMetallicRoughness": {
        "baseColorTexture": {
          "index": 0
        },
        "metallicRoughnessTexture": {
          "index": 1
        }
      }
    }
  ],
  "meshes": [
    {
      "name": "back",
      "primitives": [
        {
          "attributes": {
            "NORMAL": 2,
            "POSITION": 1,
            "TEXCOORD_0": 3
          },
          "indices": 0,
          "material": 0,
          "mode": 4
        }
      ]
    },
    {
      "name": "cube_2",
      "primitives": [
        {
          "attributes": {
            "NORMAL": 6,
            "POSITION": 5,
            "TEXCOORD_0": 7
          },
          "indices": 4,
          "material": 0,
          "mode": 4
        }
      ]
    }
  ],
  "nodes": [
    {
      "children": [
        1,
        3
      ],
      "name": "root",
      "scale": [
        207.477432250977,
        207.477432250977,
        207.477432250977
      ],
      "translation": [
        152.032928466797,
        93.1982345581055,
        -247.047714233398
      ]
    },
    {
      "children": [
        2
      ],
      "name": "back"
    },
    {
      "mesh": 0,
      "name": "back"
    },
    {
      "children": [
        4
      ],
      "name": "cube_2"
    },
    {
      "mesh": 1,
      "name": "cube_2"
    }
  ],
  "samplers": [
    {
      "magFilter": 9729,
      "minFilter": 9985,
      "wrapS": 10497,
      "wrapT": 10497
    }
  ],
  "scene": 0,
  "scenes": [
    {
      "name": "Scene",
      "nodes": [
        0
      ]
    }
  ],
  "textures": [
    {
      "sampler": 0,
      "source": 0
    },
    {
      "sampler": 0,
      "source": 1
    },
    {
      "sampler": 0,
      "source": 2
    }
  ]
}