<svg id="Calque_1" data-name="Calque 1" xmlns="http://www.w3.org/2000/svg" viewBox="0 0 841.89 179"><defs><style>.cls-1{fill:#fff;}</style></defs><title>logo</title><path class="cls-1" d="M52.11,106.55V104l11.15-1.82V13.88l-11.15-1.7V9.51h73V37.3h-3.27L112.5,12.55H76.61V58H97.1l7.16-17.59h3.27V78.74h-3.27L97.1,61H76.61v41.24L87.76,104v2.54Z"/><path class="cls-1" d="M132.16,106.55v-2.42l8.49-1.22V47.49l-8.49-1.22V43.85h20.61v59.06l8.49,1.22v2.42Zm7-79.26a7.73,7.73,0,0,1-2.43-5.76,7.61,7.61,0,0,1,2.37-5.7A8.07,8.07,0,0,1,145,13.52a7.56,7.56,0,0,1,5.58,2.31,7.75,7.75,0,0,1,2.31,5.7,8,8,0,0,1-2.31,5.76A7.5,7.5,0,0,1,145,29.66a8,8,0,0,1-5.79-2.37Z"/><path class="cls-1" d="M225.79,46.15q-3.53,3.41-11.16,4.37,3.15,4.6,3.15,12.61,0,9.46-6.73,14.92t-17,5.46a38.14,38.14,0,0,1-7.76-.73c-5.18.32-7.76,2.35-7.76,6.06a4.88,4.88,0,0,0,2.6,4.61c1.74,1,4.51,1.45,8.31,1.46H203q9.81,0,14.61,4t4.79,13.71A23.71,23.71,0,0,1,219,125.11a24.34,24.34,0,0,1-10,9,34.25,34.25,0,0,1-15.65,3.33q-13.71,0-20.19-4.12t-6.49-10.92a10,10,0,0,1,3.15-7.28,11.68,11.68,0,0,1,8.61-3.15,40,40,0,0,1,4.49.49,13.29,13.29,0,0,0-3.76,9.46,12.89,12.89,0,0,0,3.64,9.09q3.65,3.88,11.89,3.88a29.12,29.12,0,0,0,12.79-2.72,21.79,21.79,0,0,0,8.67-7.1,15.57,15.57,0,0,0,3-9c0-3.39-1.09-5.84-3.28-7.33s-6.06-2.25-11.64-2.25H189.4q-8.49,0-12.79-3.33t-4.31-9.89a12.49,12.49,0,0,1,2.49-7.7,11.06,11.06,0,0,1,6.36-4.31q-10.54-4.49-10.55-18.19,0-9.59,6.67-15T194,42.63q12.74,0,18.44,5.34a9.64,9.64,0,0,0,5.09-2.24,5,5,0,0,0,1.7-3.7,3.92,3.92,0,0,0-1.09-3,3.57,3.57,0,0,0-2.55-1,6.45,6.45,0,0,1,2-4.67,6.55,6.55,0,0,1,4.79-2,7,7,0,0,1,5,1.82,6.32,6.32,0,0,1,2,4.85A10.88,10.88,0,0,1,225.79,46.15Zm-19.41,14q0-7.4-3.09-11.4t-9.28-4q-12,0-12,15.4V66q0,7.16,3,11.28t9,4.13q6.18,0,9.28-4.13T206.38,66Z"/><path class="cls-1" d="M244.28,103.4q-5-4.37-5-13v-43l-8.49-1.21V43.73h20.62V90.18q0,6.18,2.55,9.7t7.88,3.52a18.11,18.11,0,0,0,10.73-3.7,41,41,0,0,0,9.16-9.16V47.36l-8.49-1.21V43.73h20.62v59.18l8.49,1.22v2.42H281.7V94.91a31.91,31.91,0,0,1-10.49,9.46,26.7,26.7,0,0,1-13.16,3.4Q249.32,107.77,244.28,103.4Z"/><path class="cls-1" d="M406.27,102.33a21.19,21.19,0,0,0,5.9-5.46,11.79,11.79,0,0,0,2.65-7.09,2.26,2.26,0,0,0-.54-1.57,2.14,2.14,0,0,0-1.63-.6,6.45,6.45,0,0,1-6.49-6.41v-.08a5.92,5.92,0,0,1,1.89-4.49,6.45,6.45,0,0,1,4.6-1.78,7.31,7.31,0,0,1,6,2.76,11.06,11.06,0,0,1,2.22,7.19,19.32,19.32,0,0,1-3.3,11,25,25,0,0,1-10.12,8.28Z"/><path class="cls-1" d="M420.91,167.84v-2.49l11.59-4.73,34.2-89.81h1.89l32.3,92.77,10.89,1.77v2.49H477v-2.49l9.7-1.54-10.05-28H445.16l-9.58,24.85,10.65,4.73v2.49Zm25.2-34.55h29.7l-14.2-41.65Z"/><path class="cls-1" d="M512.49,165.47l8.28-1.18V110.1l-8.28-1.19v-2.36H532.6v9.11q7.46-10.18,16.8-10.18a13.87,13.87,0,0,1,7.93,2.31,7.47,7.47,0,0,1,3.43,6.57,7,7,0,0,1-6.78,7.21,5,5,0,0,1-.55,0,7.51,7.51,0,0,1-6.16-3,5.69,5.69,0,0,0,1.31-3.55,4.24,4.24,0,0,0-1.36-3.26,5.17,5.17,0,0,0-3.61-1.24,7.79,7.79,0,0,0-5.09,2.31A39.15,39.15,0,0,0,532.6,120v44.25l9.47,1.18v2.37H512.49Z"/><path class="cls-1" d="M576.79,165.12q-4.66-3.92-4.67-12.43V110.1l-8.4-1.19v-2.36h8.4V96.73l11.83-3v12.78h15.38v2.36L584,110.1v42.36Q584,165,593,165a10.8,10.8,0,0,0,3.61-.59,16,16,0,0,0,2.72-1.19,8.68,8.68,0,0,0,1.25-.82l1.53,1.89A18.58,18.58,0,0,1,589.28,169Q581.47,169,576.79,165.12Z"/><path class="cls-1" d="M606,167.84v-2.37l8.28-1.18V110.22L606,109v-2.36h20.11v57.62l8.29,1.18v2.37Zm6.86-77.33a7.85,7.85,0,0,1-.14-11.1l.08-.08a8,8,0,0,1,5.74-2.25A7.42,7.42,0,0,1,624,79.33a7.57,7.57,0,0,1,2.25,5.56A7.73,7.73,0,0,1,624,90.51a7.32,7.32,0,0,1-5.44,2.31,7.86,7.86,0,0,1-5.72-2.31Z"/><path class="cls-1" d="M649,164.88q-6.51-4.14-6.51-10.77a7.57,7.57,0,0,1,1.83-5.38,6.43,6.43,0,0,1,4.91-2,6.71,6.71,0,0,1,4,1.18,6.43,6.43,0,0,1,2.37,3.31,8.87,8.87,0,0,0-2.6,6,8.1,8.1,0,0,0,3.31,6.39c2.21,1.81,5.17,2.71,8.88,2.72,5,0,9-1.13,12.18-3.37a10.6,10.6,0,0,0,4.74-9.06,6.07,6.07,0,0,0-2-5q-2-1.65-7.8-3.78l-17.87-6.51q-10.53-3.78-10.53-14.08a18,18,0,0,1,5.79-13.78q5.81-5.39,16-5.39a26,26,0,0,1,14.37,3.85,12.28,12.28,0,0,1,6,10.94,6.59,6.59,0,0,1-1.54,4.56,5.15,5.15,0,0,1-4,1.71,6,6,0,0,1-4.08-1.36,4.61,4.61,0,0,1-1.6-3.72,6.83,6.83,0,0,0,2.13-2.55,8,8,0,0,0,.59-3.25,6.49,6.49,0,0,0-2.9-5.44c-1.93-1.42-4.9-2.13-8.93-2.13a22.56,22.56,0,0,0-8.93,1.59,13.22,13.22,0,0,0-5.62,4.2,9,9,0,0,0-1.9,5.33,5.44,5.44,0,0,0,2.07,4.49,28.88,28.88,0,0,0,7.63,3.67l16.57,5.92a19.22,19.22,0,0,1,8.76,5.91,15.51,15.51,0,0,1,3,9.82,19.81,19.81,0,0,1-5.44,14.32Q676.36,169,665.24,169,655.54,169,649,164.88Z"/><path class="cls-1" d="M708.37,165.12q-4.68-3.92-4.68-12.43V110.1l-8.4-1.19v-2.36h8.4V96.73l11.83-3v12.78H730.9v2.36l-15.38,1.19v42.36q0,12.54,9,12.54a11.32,11.32,0,0,0,3.6-.59,16,16,0,0,0,2.72-1.19,8.68,8.68,0,0,0,1.25-.82l1.54,1.89A18.63,18.63,0,0,1,720.85,169Q713,169,708.37,165.12Z"/><path class="cls-1" d="M751.14,165.06a29,29,0,0,1-11.24-11.18,35.71,35.71,0,0,1-.06-33.31,29.22,29.22,0,0,1,11-11.12,30.49,30.49,0,0,1,15.44-4,26.9,26.9,0,0,1,13.37,3.32,23.65,23.65,0,0,1,9.23,9.17,27.74,27.74,0,0,1,3.43,13.42H748.77v11.72q0,10.41,4.67,16.86T767,166.42a23.72,23.72,0,0,0,14.44-4.62,18.9,18.9,0,0,0,7.69-12h2.72a22.24,22.24,0,0,1-8.4,14A26.38,26.38,0,0,1,767,169,32.06,32.06,0,0,1,751.14,165.06Zm28.16-36.62q0-10.31-3.2-15.33t-9.94-5c-5.28,0-9.39,1.85-12.3,5.56s-4.58,8.63-5,14.79Z"/><path class="cls-1" d="M354.59,45a14.13,14.13,0,0,0-8.12-2.37q-9.59,0-17.22,10.43V43.73H308.63v2.42l8.49,1.21V94.62h.76v11.93h9.45v-32h1.92v-17a41,41,0,0,1,6.06-7.34,8,8,0,0,1,5.21-2.36,5.26,5.26,0,0,1,3.7,1.27,4.31,4.31,0,0,1,1.4,3.34,5.83,5.83,0,0,1-1.34,3.64,7.69,7.69,0,0,0,6.31,3,7.17,7.17,0,0,0,7.52-6.79c0-.2,0-.41,0-.61A7.61,7.61,0,0,0,354.59,45Z"/><path class="cls-1" d="M376.31,81.29V69.2H421a28.47,28.47,0,0,0-3.52-13.77A24.28,24.28,0,0,0,408,46a27.58,27.58,0,0,0-13.71-3.4,31.21,31.21,0,0,0-15.82,4.07,30.12,30.12,0,0,0-11.28,11.4,33.75,33.75,0,0,0-4.19,17v.29A34.54,34.54,0,0,1,376.31,81.29ZM381.52,51q4.49-5.7,12.61-5.7,6.92,0,10.19,5.16t3.28,15.7H376.42Q377,56.71,381.52,51Z"/><path class="cls-1" d="M390,95.6A40.71,40.71,0,0,0,374.24,79a45.23,45.23,0,0,0-23.13-5.86H317.06l-.38,90.4-10.89,1.77v2.49h45.32a45.41,45.41,0,0,0,23.07-5.8A40.55,40.55,0,0,0,390,145.42q5.69-10.71,5.68-24.91T390,95.6Zm-9.35,34q0,11.35-3.78,19.35a27.19,27.19,0,0,1-10.48,12,29.12,29.12,0,0,1-15.32,4H329.7V76.14h21.41a29.12,29.12,0,0,1,15.32,4,27.12,27.12,0,0,1,10.48,12q3.78,7.93,3.78,19.29Z"/></svg>